<mxfile host="app.diagrams.net" modified="2024-04-07T06:33:12.412Z" agent="Mozilla/5.0 (Windows NT 10.0; Win64; x64) AppleWebKit/537.36 (KHTML, like Gecko) Chrome/123.0.0.0 Safari/537.36" version="24.2.2" etag="zrdtvi0djYLzS8ErIcPO" type="github">
  <diagram name="Страница — 1" id="8Gf94YWYJyPOhwyjhpj3">
    <mxGraphModel>
      <root>
        <mxCell id="0" />
        <mxCell id="1" parent="0" />
      </root>
    </mxGraphModel>
  </diagram>
</mxfile>
